<svg width="50" height="50" viewBox="0 0 50 50" fill="none" xmlns="http://www.w3.org/2000/svg">
<path d="M39.5833 18.1459L28.4729 9.5042C27.4979 8.74567 26.2978 8.33385 25.0625 8.33385C23.8272 8.33385 22.6271 8.74567 21.6521 9.5042L10.5396 18.1459C9.87174 18.6652 9.33142 19.3303 8.95989 20.0903C8.58835 20.8504 8.39541 21.6853 8.39581 22.5313V37.5313C8.39581 38.6363 8.8348 39.6962 9.6162 40.4776C10.3976 41.259 11.4574 41.6979 12.5625 41.6979H37.5625C38.6675 41.6979 39.7274 41.259 40.5088 40.4776C41.2902 39.6962 41.7291 38.6363 41.7291 37.5313V22.5313C41.7291 20.8167 40.9375 19.1979 39.5833 18.1459Z" stroke="white" stroke-width="2" stroke-linecap="round" stroke-linejoin="round"/>
<path d="M33.3334 31.25C28.7292 34.0271 21.2667 34.0271 16.6667 31.25" stroke="white" stroke-width="2" stroke-linecap="round" stroke-linejoin="round"/>
</svg>
